<svg width="29" height="27" viewBox="0 0 29 27" fill="none" xmlns="http://www.w3.org/2000/svg">
<path d="M25.375 5.0625H22.6562L21.75 3.375C21.2162 2.39285 20.9389 1.6875 19.9375 1.6875H9.0625C8.0611 1.6875 7.7303 2.49243 7.25 3.375L6.34375 5.0625H3.625C1.6231 5.0625 0 6.57366 0 8.4375V21.9375C0 23.8013 1.6231 25.3125 3.625 25.3125H25.375C27.3769 25.3125 29 23.8013 29 21.9375V8.4375C29 6.57366 27.3769 5.0625 25.375 5.0625ZM27.1875 21.9375C27.1875 22.8698 26.3764 23.625 25.375 23.625H3.625C2.6236 23.625 1.8125 22.8698 1.8125 21.9375V8.4375C1.8125 7.506 2.6236 6.75 3.625 6.75H7.25L8.15625 5.0625C8.79695 4.08124 8.96735 3.375 9.96875 3.375H19.0312C20.0326 3.375 20.203 4.08035 20.8438 5.0625L21.75 6.75H25.375C26.3764 6.75 27.1875 7.50516 27.1875 8.4375V21.9375ZM14.5 8.4375C10.4962 8.4375 7.25 11.4598 7.25 15.1875C7.25 18.9152 10.4962 21.9375 14.5 21.9375C18.5038 21.9375 21.75 18.9152 21.75 15.1875C21.75 11.4598 18.5038 8.4375 14.5 8.4375ZM14.5 20.25C11.4967 20.25 9.0625 17.9837 9.0625 15.1875C9.0625 12.3913 11.4967 10.125 14.5 10.125C17.5033 10.125 19.9375 12.3913 19.9375 15.1875C19.9375 17.9837 17.5033 20.25 14.5 20.25Z" fill="black" fill-opacity="0.45"/>
</svg>
