<svg width="35" height="35" viewBox="0 0 35 35" fill="none" xmlns="http://www.w3.org/2000/svg">
<path d="M22.2279 25.0201C20.7227 26.3657 19.1162 27.8019 17.4959 29.3817C15.8785 27.8049 14.2754 26.371 12.7732 25.0275L12.667 24.9326C10.907 23.3584 9.30045 21.9168 7.92927 20.4822C5.19003 17.6163 3.5293 14.9187 3.5293 11.5595C3.5293 7.98018 6.43387 5.07618 10.0126 5.07618C11.6968 5.07618 12.8682 5.49008 13.8309 6.26022C14.8293 7.05894 15.6863 8.30576 16.6015 10.1358L17.4961 11.9246L18.3904 10.1356C19.3052 8.30567 20.162 7.05886 21.1603 6.26015C22.1229 5.49003 23.2943 5.07611 24.9785 5.07611C28.5669 5.07611 31.4707 7.98089 31.4707 11.5594C31.4707 14.9183 29.8082 17.6158 27.0666 20.4819C25.6943 21.9166 24.0867 23.3582 22.3259 24.9324L22.2279 25.0201Z" fill="#FF7979" stroke="#76674A" stroke-width="2"/>
</svg>
